<svg xmlns="http://www.w3.org/2000/svg" width="105" height="43" viewBox="0 0 105 43">
    <g fill="none" fill-rule="evenodd">
        <path fill="#222" d="M104.966 8.673c0 18.658-23.335 33.785-52.119 33.785C24.062 42.458.73 27.33.73 8.673c0-18.66 23.333-1.098 52.118-1.098 28.784 0 52.12-17.563 52.12 1.098"/>
        <path fill="#E7709D" d="M54.546 26.42c-14.74-5.24-32.63-1.933-32.63 4.206 0 1.516.894 3.084 2.51 4.584 8.592 4.023 19.113 6.4 30.485 6.4 10.695 0 20.634-2.097 28.926-5.693 2.132-1.709 3.332-3.533 3.332-5.29 0-6.14-19.679-9.447-32.623-4.207"/>
        <path fill="#FFFFFE" d="M12.276 2.653l-4.387-.026-.38.06c.387 9.434 6.981 18.012 14.506 17.73 6.184-.23 11.205-5.59 12.612-12.73-8.958-1.885-16.686-4.384-22.351-5.034M95.114 2.653l4.385-.026.382.06c-.387 9.434-6.981 18.012-14.506 17.73-6.184-.23-11.205-5.59-12.612-12.73 8.96-1.885 16.686-4.384 22.351-5.034"/>
        <path fill="#F3E4C8" d="M87.17 17.034s8.551-1.41 8.474-8.038c-.074-6.626-4.885-3.362-5.16.184-.277 3.544-3.315 7.854-3.315 7.854M21.068 17.034s-8.554-1.41-8.474-8.038c.073-6.626 4.884-3.362 5.16.184.277 3.544 3.314 7.854 3.314 7.854"/>
    </g>
</svg>
