<svg xmlns="http://www.w3.org/2000/svg" width="350" height="464" viewBox="0 0 350 464">
    <g fill="none" fill-rule="evenodd">
        <path fill="#C27A47" d="M130.508 68.644C130.508 30.734 151.945 0 178.39 0c26.444 0 47.881 30.733 47.881 68.644"/>
        <path fill="#C27A47" d="M222.034 69.635c13.398-25.03 38.343-37.766 55.718-28.447 17.373 9.322 20.598 37.17 7.198 62.202"/>
        <path fill="#C27A47" d="M283.898 100.273c15.41-10.693 33.814-10.509 41.098.416 7.289 10.922.7 28.446-14.71 39.142"/>
        <path fill="#C27A47" d="M309.322 135.215c15.114-5.066 30.321-.935 33.957 9.234 3.64 10.164-5.662 22.516-20.776 27.585M37.288 130.13c-15.115-5.066-30.322-.935-33.956 9.232-3.643 10.166 5.66 22.518 20.776 27.587"/>
        <path fill="#C27A47" d="M67.797 96.036c-15.41-10.693-33.813-10.51-41.099.416-7.288 10.923-.698 28.445 14.71 39.141"/>
        <path fill="#C27A47" d="M133.05 69.635c-13.397-25.03-38.344-37.766-55.717-28.447-17.373 9.322-20.598 37.17-7.2 62.202"/>
        <path fill="#FFA465" d="M20.862 301.65a126.59 126.59 0 0 0-.381 4.518c-.644 9.513-.362 16.93 1.013 26.408 1.053 7.238 2.518 14.464 4.555 21.493l.071.234c.14.456.284.91.429 1.361.267.813.537 1.623.818 2.43a98.055 98.055 0 0 0 1.809 4.782c1.28 3.093 2.683 6.148 4.366 9.047l.265.452c.17.264.333.524.509.787.454.668.899 1.335 1.386 1.982.952 1.276 1.931 2.528 3.015 3.7.348.38.71.766 1.075 1.142.296.274.705.65.868.782 1.193.983 2.428 1.928 3.744 2.738.348.215 1.792.96 1.304.74.374.172.748.343 1.131.494 1.198.477 2.41.91 3.645 1.254.258.034 1.408.267 1.64.296.859.11 1.715.22 2.582.27.676.037 1.356.063 2.04.075.357-.026 1.701-.076 1.812-.085 5.507-.45 10.709 2.58 11.66 8.355.847 5.12-2.847 11.186-8.363 11.644-6.245.513-12.21.234-18.256-1.498-14.975-4.288-25.461-17.086-31.626-30.812-6.318-14.073-9.934-29.936-11.319-45.26-1.723-19.011-.137-38.103 5.886-56.29a134.218 134.218 0 0 1 2.42-6.709 173.465 173.465 0 0 1-3.875-36.564c0-95.341 77.214-172.636 172.457-172.636C272.786 56.78 350 134.075 350 229.416c0 17.753-2.677 34.879-7.649 50.997 4.123 15.831 5.086 32.229 3.605 48.567-1.384 15.323-5 31.186-11.32 45.259-6.164 13.726-16.65 26.524-31.625 30.812-6.047 1.732-12.01 2.011-18.256 1.498-5.516-.458-9.21-6.524-8.363-11.644.951-5.775 6.153-8.804 11.66-8.355.111.01 1.455.059 1.813.085a52.944 52.944 0 0 0 2.04-.076c.866-.05 1.722-.158 2.581-.27.232-.028 1.383-.261 1.64-.295a36.056 36.056 0 0 0 3.645-1.254c.383-.151.757-.322 1.131-.494-.487.22.956-.525 1.304-.74 1.316-.81 2.551-1.755 3.744-2.738.163-.133.573-.508.868-.782.365-.376.727-.761 1.075-1.142 1.084-1.172 2.063-2.424 3.015-3.7.487-.647.932-1.314 1.387-1.982.175-.263.338-.523.508-.787l.265-.452c1.683-2.899 3.086-5.954 4.367-9.047a98.054 98.054 0 0 0 1.808-4.783c.281-.806.551-1.616.819-2.429.144-.451.288-.905.428-1.36l.07-.235c2.038-7.03 3.503-14.255 4.556-21.493.841-5.795 1.273-10.819 1.335-16.023-18.836 32.184-47.788 57.716-82.486 72.228-3.195 6.787-6.146 15.246-4.34 20.66 3.42 10.28 16.422 36.309 16.422 36.309l-.066.3c.54 1.009.835 2.05.835 3.127 0 7.94-15.622 14.382-34.894 14.382-19.276 0-34.901-6.441-34.901-14.382 0-3.877 3.727-7.393 9.774-9.983-3.33-7.888-6.865-21.593-1.601-38.03a175.367 175.367 0 0 1-30.895.389c5.163 15.833 2.14 29.157-1.06 37.227 6.639 2.623 10.782 6.304 10.782 10.397 0 7.94-15.627 14.382-34.901 14.382-19.272 0-34.901-6.441-34.901-14.382 0-.527.075-1.044.208-1.56-.96-.667-.89-1.18-.89-1.18s13-26.033 16.423-36.307c1.686-5.062-.779-12.782-3.716-19.308-42.252-16.09-76.554-48.322-95.382-89.172z"/>
        <path fill="#000" d="M342.348 280.394c4.125 15.837 5.087 32.241 3.61 48.586-1.386 15.323-5.007 31.186-11.32 45.259-6.16 13.726-16.651 26.524-31.627 30.812-6.043 1.732-12.01 2.011-18.257 1.498-5.519-.458-9.205-6.524-8.363-11.644.954-5.775 6.158-8.804 11.664-8.355.112.01 1.453.059 1.815.085a54.024 54.024 0 0 0 2.04-.076c.862-.05 1.718-.158 2.575-.27.237-.028 1.387-.261 1.645-.295a35.772 35.772 0 0 0 3.64-1.254c.385-.151.76-.322 1.13-.494-.487.22.959-.525 1.305-.74 1.322-.81 2.553-1.755 3.743-2.738.161-.133.575-.508.874-.782.362-.376.721-.761 1.074-1.142 1.079-1.172 2.061-2.424 3.01-3.7.485-.647.935-1.314 1.39-1.982.172-.263.338-.523.508-.787l.265-.452c1.68-2.899 3.088-5.954 4.37-9.047.652-1.579 1.236-3.178 1.807-4.783.284-.806.55-1.616.816-2.429.15-.451.289-.905.43-1.36 2.104-7.267 3.57-14.49 4.63-21.728.84-5.8 1.271-10.828 1.332-16.037-18.823 32.181-47.748 57.711-82.412 72.223-3.193 6.787-6.142 15.247-4.337 20.665 3.417 10.282 16.41 36.316 16.344 36.616.541 1.01.837 2.051.837 3.126 0 7.947-15.614 14.39-34.872 14.39-19.262 0-34.875-6.443-34.875-14.39 0-3.874 3.724-7.393 9.767-9.98-3.328-7.891-6.86-21.604-1.6-38.043a175.036 175.036 0 0 1-30.873.391c5.159 15.837 2.139 29.164-1.059 37.237 6.634 2.621 10.774 6.306 10.774 10.395 0 7.947-15.616 14.39-34.876 14.39-19.255 0-34.876-6.443-34.876-14.39 0-.523.076-1.042.208-1.558-.96-.668-.888-1.18-.888-1.18s12.99-26.038 16.41-36.317c1.685-5.06-.778-12.785-3.713-19.313-40.33-15.373-73.4-45.487-92.684-83.765 33.567 39.218 83.34 64.101 138.941 64.101 100.098 0 181.372-80.535 182.937-180.459 2.843 12.441 4.393 25.373 4.393 38.676 0 17.768-2.678 34.91-7.652 51.04z" opacity=".1"/>
        <path fill="#000" d="M139.463 445.763l.177-.217c.877-.997 5.034-5.129 14.497-5.133 1.554 0 3.254.112 5.105.37l.08-.578c-1.875-.26-3.6-.374-5.185-.374-11.026-.003-15.123 5.54-15.154 5.592l.48.34" opacity=".1"/>
        <path fill="#000" d="M139.364 443.639l.105.26c1.07-.376 1.784-.536 2.751-1.2l.003-.003c.46-.325 2.05-1.259 3.642-1.801l.002-.002h.005a19.552 19.552 0 0 1 2.87-.8l.198-.041.053-.011.019-.002.014-.005.02-.004.037-.016.055-.033.11-.216h-.298l.188.216.11-.216h-.298l.188.216-.186-.211.09.26.096-.05-.186-.21.09.26h.003c.205-.045 1.65-.307 3.242-.41a30.881 30.881 0 0 1 2.056-.062c1 0 1.856.038 2.239.06l.407.01c1.013.002 1.732-.227 2.697-.599l.483-.184-.414-.296c-.934-.667-1.706-1.092-3.009-1.185a34.872 34.872 0 0 0-2.427-.076c-.698 0-1.463.018-2.206.07a30.373 30.373 0 0 0-3.297.41l-.221.043-.062.01-.022.005-.016.005-.026.009-.043.02-.057.042-.086.196h.298l-.167-.23-.131.23h.298l-.167-.23.162.225-.079-.262-.083.037.162.225-.079-.262.026.086-.021-.089-.005.003.026.086-.021-.089c-.148.034-1.791.325-3.504.948l.11.26-.103-.263c-1.839.625-3.628 1.673-4.216 2.108l.183.218-.179-.222c-1.076.756-1.524 1.592-1.724 2.715l-.086.476.486-.17-.105-.26.293.047c.203-1.05.527-1.663 1.496-2.366l.003-.002h.002c.51-.382 2.301-1.432 4.05-2.021l.007-.002a21.996 21.996 0 0 1 3.134-.865l.215-.042.06-.014.02-.004.022-.005.031-.01.05-.025.131-.231h-.297l.21.197.087-.197h-.297l.21.197-.21-.197.102.26.107-.063-.21-.197.103.26-.079-.198.055.207.024-.01-.079-.197.055.207c.103-.025 1.73-.338 3.497-.456a32.663 32.663 0 0 1 2.163-.067c1.067 0 1.98.042 2.377.073 1.19.096 1.77.423 2.697 1.074l.181-.22-.112-.258c-.965.367-1.56.558-2.473.558l-.371-.008a42.74 42.74 0 0 0-2.275-.06c-.665 0-1.391.015-2.096.064a28.387 28.387 0 0 0-3.083.374l-.205.037-.06.011-.025.007-.022.007-.038.015-.052.032-.11.215h.298l-.188-.215-.11.215h.298l-.188-.215.188.215-.088-.264-.1.049.188.215-.088-.264.014.042-.01-.045-.004.003.014.042-.01-.045c-.204.04-1.684.318-3.21.876l.107.258-.103-.26c-1.677.576-3.273 1.514-3.797 1.881l.181.22-.179-.222c-.881.605-1.49.736-2.606 1.127l.105.26.293.047-.293-.046M222.881 445.423c-.028-.052-4.126-5.595-15.153-5.592-1.584 0-3.308.114-5.186.374l.083.578c1.852-.258 3.55-.37 5.103-.37 5.41.002 9.08 1.353 11.403 2.695 1.159.673 1.982 1.341 2.511 1.84.267.249.459.456.584.598l.178.217.477-.34" opacity=".1"/>
        <path fill="#000" d="M221.653 443.637l.293-.047c-.196-1.123-.644-1.958-1.723-2.714l-.181.222.186-.218c-.589-.435-2.378-1.482-4.217-2.107l-.1.262.107-.26a22.022 22.022 0 0 0-2.438-.718 22.7 22.7 0 0 0-.788-.173l-.22-.042-.054-.011-.008-.003-.052.207.064-.202-.012-.005-.052.207.064-.202-.083.258.112-.25-.029-.008-.083.258.112-.25-.114.256.162-.233-.048-.022-.114.255.162-.233-.162.233h.297c-.028-.206-.123-.209-.135-.233l-.162.233h.297l-.088-.195-.107-.065-.129-.029a30.18 30.18 0 0 0-3.507-.451 32.668 32.668 0 0 0-2.204-.069c-1.086 0-2.006.042-2.43.076-1.301.093-2.073.518-3.007 1.184l-.415.296.482.185c.967.37 1.684.6 2.7.598l.402-.01c.386-.022 1.241-.06 2.242-.06.653 0 1.368.016 2.054.063.867.055 1.69.158 2.292.249.303.044.55.084.72.115l.195.036.045.011h.003l.066-.222-.083.218.017.004.066-.222-.083.218.098-.256-.131.24.033.016.098-.256-.131.24.133-.244-.188.213.055.031.133-.244-.188.213.188-.216h-.296l.108.216.188-.216h-.296l.1.21.105.055.112.024c.334.065 1.687.336 3.06.838h.002l.002.003c1.592.542 3.186 1.476 3.644 1.802l.002.003h.002c.963.662 1.682.822 2.75 1.198l.486.17-.088-.477-.293.047.105-.26c-1.116-.392-1.728-.523-2.607-1.125l-.176.222.178-.22c-.522-.369-2.12-1.307-3.798-1.883l-.102.26.11-.258a20.29 20.29 0 0 0-2.235-.664c-.3-.071-.55-.125-.727-.162l-.203-.04-.052-.01-.007-.002-.048.19.055-.187-.007-.003-.048.19.055-.187-.076.257.097-.25-.021-.007-.076.257.097-.25-.1.26.14-.245-.04-.016-.1.26.14-.244-.14.244.198-.206-.057-.038-.14.244.197-.206-.198.206h.298l-.1-.206-.198.206h.298l-.11-.215-.1-.05-.335-.066a29.696 29.696 0 0 0-3.05-.367 30.795 30.795 0 0 0-2.097-.064c-1.017 0-1.882.038-2.275.06l-.37.009c-.915 0-1.51-.19-2.473-.558l-.112.258.179.22c.927-.651 1.51-.978 2.697-1.074.4-.03 1.313-.073 2.38-.073.686 0 1.437.018 2.159.067a30.623 30.623 0 0 1 3.228.402l.212.04.053.011.007.002.052-.195-.064.19.012.005.052-.195-.064.19.086-.255-.11.25.024.006.086-.256-.11.25.112-.257-.152.236.04.02.112-.256-.152.236.155-.238-.212.196.057.042.155-.238-.212.196.212-.196h-.298l.086.196.212-.196h-.298c.028.21.121.211.136.234l.085.035c.074.018.465.085 1.11.238.634.151 1.476.378 2.333.69l.005.001c1.749.59 3.538 1.639 4.048 2.02h.003l.002.003c.974.703 1.298 1.316 1.499 2.365l.293-.046.105-.26-.105.26" opacity=".1"/>
        <g fill="#000" opacity=".1">
            <path d="M174.576 337.288c.78-.082 1.263-.188 1.794-.702l6.809-6.808c.515-.532.625-1.02.72-1.812-.78.083-1.263.188-1.794.702l-6.81 6.808c-.514.53-.625 1.02-.719 1.812"/>
            <path d="M174.576 327.966c.083.78.187 1.263.702 1.795l6.809 6.809c.53.514 1.019.625 1.811.718-.083-.78-.188-1.263-.703-1.793l-6.808-6.81c-.531-.514-1.02-.625-1.81-.719"/>
        </g>
        <path fill="#000" d="M193.22 254.237c-2.137 1.833-4.566 3.053-7.08 3.885a25.126 25.126 0 0 1-7.757 1.2 25.584 25.584 0 0 1-7.74-1.214c-2.503-.832-4.965-1.989-7.084-3.87h29.661z" opacity=".15"/>
    </g>
</svg>
